<svg xmlns="http://www.w3.org/2000/svg" xmlns:xlink="http://www.w3.org/1999/xlink" x="0px" y="0px"
	 viewBox="0 0 21.2 21.2" enable-background="new 0 0 21.2 21.2" xml:space="preserve">
<path d="M20.2,21.2h-3.4c-0.6,0-1-0.4-1-1s0.4-1,1-1h2.4v-2.3c0-0.6,0.4-1,1-1s1,0.4,1,1v3.3
	C21.2,20.7,20.8,21.2,20.2,21.2z M4.3,21.2H1c-0.6,0-1-0.4-1-1v-3.4c0-0.6,0.4-1,1-1s1,0.4,1,1v2.4h2.3c0.6,0,1,0.4,1,1
	S4.9,21.2,4.3,21.2z M1,5.4c-0.6,0-1-0.4-1-1V1c0-0.6,0.4-1,1-1h3.3c0.6,0,1,0.4,1,1s-0.4,1-1,1H2v2.4C2,4.9,1.6,5.4,1,5.4z
	 M20.2,5.3c-0.6,0-1-0.4-1-1V2h-2.4c-0.6,0-1-0.4-1-1s0.4-1,1-1h3.4c0.6,0,1,0.4,1,1v3.3C21.2,4.8,20.8,5.3,20.2,5.3z"/>
</svg>
