<svg xmlns="http://www.w3.org/2000/svg" xmlns:xlink="http://www.w3.org/1999/xlink" x="0px"
	 y="0px" viewBox="0 0 21.2 21.2" enable-background="new 0 0 21.2 21.2" xml:space="preserve">
<path d="M13.6,12.9H17c0.6,0,1,0.4,1,1s-0.4,1-1,1h-2.4v2.3c0,0.6-0.4,1-1,1s-1-0.4-1-1v-3.3
	C12.6,13.4,13,12.9,13.6,12.9z M4,12.8h3.3c0.6,0,1,0.4,1,1v3.4c0,0.6-0.4,1-1,1s-1-0.4-1-1v-2.4H4c-0.6,0-1-0.4-1-1
	S3.4,12.8,4,12.8z M7.3,3.3c0.6,0,1,0.4,1,1v3.4c0,0.6-0.4,1-1,1H4c-0.6,0-1-0.4-1-1c0-0.6,0.4-1,1-1h2.3V4.3
	C6.3,3.8,6.7,3.3,7.3,3.3z M13.6,3.3c0.6,0,1,0.4,1,1v2.3H17c0.6,0,1,0.4,1,1s-0.4,1-1,1h-3.4c-0.6,0-1-0.4-1-1V4.3
	C12.6,3.8,13,3.3,13.6,3.3z"/>
</svg>
