<svg version="1.1" xmlns="http://www.w3.org/2000/svg" xmlns:xlink="http://www.w3.org/1999/xlink" x="0px" y="0px"
	 viewBox="0 0 288 272.5" enable-background="new 0 0 288 272.5" xml:space="preserve">
<g opacity="0.3">
	<path fill="#FFFFFF" d="M154.6,272.5H16.2c-8.9,0-16.2-7.3-16.2-16.2V139.1c0-8.9,7.3-16.2,16.2-16.2h123.2v2H16.2c-7.8,0-14.2,6.4-14.2,14.2v117.2c0,7.8,6.4,14.2,14.2,14.2h138.4V272.5z"/>
	<path fill="#FFFFFF" d="M16.6,223.9h-2.4c-1.7,0-3.2-1.4-3.2-3.2v-46.1c0-1.7,1.4-3.2,3.2-3.2h2.4c1.7,0,3.2,1.4,3.2,3.2v46.1C19.7,222.5,18.3,223.9,16.6,223.9z M14.2,173.6c-0.6,0-1.2,0.5-1.2,1.2v46.1c0,0.6,0.5,1.2,1.2,1.2h2.4c0.6,0,1.2-0.5,1.2-1.2v-46.1c0-0.6-0.5-1.2-1.2-1.2H14.2z"/>
</g>
<g>
	<path fill="#FFFFFF" d="M277.2,272.5h-128c-6,0-10.8-4.9-10.8-10.8V10.8c0-6,4.9-10.8,10.8-10.8h128c6,0,10.8,4.9,10.8,10.8v250.9C288,267.7,283.2,272.5,277.2,272.5z M149.2,2c-4.9,0-8.8,4-8.8,8.8v250.9c0,4.9,4,8.8,8.8,8.8h128c4.9,0,8.8-4,8.8-8.8V10.8c0-4.9-4-8.8-8.8-8.8H149.2z"/>
	<path fill="#FFFFFF" d="M227,259.9h-27.6c-2.9,0-5.2-2.4-5.2-5.2V250c0-2.9,2.4-5.2,5.2-5.2H227c2.9,0,5.2,2.4,5.2,5.2v4.6C232.2,257.6,229.9,259.9,227,259.9z M199.4,246.8c-1.8,0-3.2,1.5-3.2,3.2v4.6c0,1.8,1.5,3.2,3.2,3.2H227c1.8,0,3.2-1.5,3.2-3.2V250c0-1.8-1.5-3.2-3.2-3.2H199.4z"/>
	<path fill="#FFFFFF" d="M236.2,19.7h-46.1c-1.7,0-3.2-1.4-3.2-3.2v-2.4c0-1.7,1.4-3.2,3.2-3.2h46.1c1.7,0,3.2,1.4,3.2,3.2v2.4C239.4,18.3,238,19.7,236.2,19.7z M190.2,13.1c-0.6,0-1.2,0.5-1.2,1.2v2.4c0,0.6,0.5,1.2,1.2,1.2h46.1c0.6,0,1.2-0.5,1.2-1.2v-2.4c0-0.6-0.5-1.2-1.2-1.2H190.2z"/>
</g>
<path fill="#FFFFFF" d="M50.8,84.8h-2c0-24.4,19.8-44.2,44.2-44.2v2C69.8,42.6,50.8,61.5,50.8,84.8z"/>
<polygon fill="#FFFFFF" points="87.6,49.3 86.2,47.8 92.5,41.6 86.2,35.3 87.6,33.9 95.3,41.6 "/>
</svg>